<svg xmlns="http://www.w3.org/2000/svg" xmlns:xlink="http://www.w3.org/1999/xlink" viewBox="0 0 536.89 299.11">
  <defs>
    <style>
      .a, .b {
        fill-rule: evenodd;
      }

      .a {
        fill: url(#a);
      }

      .b {
        fill: #0e4067;
        stroke-miterlimit: 10;
        stroke-width: 0.5px;
      }

      .b, .c {
        stroke: #fefefe;
      }

      .c {
        fill: none;
        stroke-linejoin: bevel;
        stroke-width: 0.22px;
      }
    </style>
    <linearGradient id="a" x1="12521.78" y1="-4508.98" x2="13434.24" y2="-2746.41" gradientTransform="matrix(0.07, 0, 0, -0.07, -643.62, -100.21)" gradientUnits="userSpaceOnUse">
      <stop offset="0" stop-color="#a2a39e" stop-opacity="0.62"/>
      <stop offset="0.42" stop-color="#587283"/>
      <stop offset="1" stop-color="#0e4067"/>
    </linearGradient>
  </defs>
  <g>
    <path class="a" d="M299,26.52c-41.91,19.58-78.27,47.09-112.32,77C129,154.17,78,211.7.56,299.11H54.48c50.69-61.56,70.64-85.54,90.08-109.22,18-22,35.64-43.85,56.88-65.38,72.14-73.08,190.29-136.37,284.11-94,24.41,13.75,29.73,22,37,39.82,7.27,24-1.59,52.34-22.25,67-13,10-25.63,14-44.35,14.61l-108.87,5.55v5.61h40.32V299.11h17.14V163.17h5.69V299.11H416V163.17l40.46-1c10.8-.36,17.86-1.16,26.35-3.24a61.19,61.19,0,0,0,28.8-14.26c7.78-6.84,15-15,19.23-25.27h0a67.79,67.79,0,0,0,6-21.31c.65-4.61.94-14.91-.28-20.09-2-12.67-3.68-15.63-9.29-26.57a77.78,77.78,0,0,0-20.74-22.1c-8-5.91-15.91-9.72-25.13-14a228.51,228.51,0,0,0-21.6-7.78A168.65,168.65,0,0,0,433.2,2.25C388.42-4.66,340.9,7,299,26.52Z" transform="translate(-0.56 -0.25)"/>
    <polygon class="b" points="306.79 157.31 306.79 298.86 312.48 298.86 312.48 157.31 306.79 157.31"/>
    <polygon class="b" points="283.9 157.31 283.9 298.86 301.1 298.86 301.1 157.31 283.9 157.31"/>
    <path class="b" d="M210.8,157.56,94.73,299.11H116.4l43.56-53h55.37v53H221v-53h6.26v53h11.45V157.56Zm-46.16,82.87,50.69-61.56v61.56Zm56.38,0V171.89l6.26-7.56v76.1Z" transform="translate(-0.56 -0.25)"/>
  </g>
  <g>
    <line class="c" x1="93.82" y1="298.86" x2="115.42" y2="298.86"/>
    <line class="c" x1="214.06" y1="298.86" x2="219.74" y2="298.86"/>
    <line class="c" x1="225.94" y1="298.86" x2="237.31" y2="298.86"/>
    <line class="c" x1="282.96" y1="298.86" x2="300.02" y2="298.86"/>
    <line class="c" x1="305.71" y1="298.86" x2="311.4" y2="298.86"/>
    <line class="c" x1="385.49" y1="298.86" x2="402.62" y2="298.86"/>
    <line class="c" x1="408.31" y1="298.86" x2="414" y2="298.86"/>
    <line class="c" x1="210.24" y1="157.31" x2="238.18" y2="157.31"/>
    <line class="c" x1="283.9" y1="157.31" x2="301.1" y2="157.31"/>
    <line class="c" x1="306.79" y1="157.31" x2="312.48" y2="157.31"/>
    <line class="c" x1="346.54" y1="162.92" x2="386.86" y2="162.92"/>
    <line class="c" x1="403.99" y1="162.92" x2="409.68" y2="162.92"/>
    <line class="c" x1="226.73" y1="164.08" x2="226.73" y2="240.18"/>
    <line class="c" x1="226.73" y1="245.87" x2="226.73" y2="298.86"/>
    <line class="c" x1="238.18" y1="157.31" x2="238.18" y2="298.86"/>
    <line class="c" x1="283.9" y1="157.31" x2="283.9" y2="298.86"/>
    <line class="c" x1="301.1" y1="157.31" x2="301.1" y2="298.86"/>
    <line class="c" x1="306.79" y1="157.31" x2="306.79" y2="298.86"/>
    <line class="c" x1="312.48" y1="157.31" x2="312.48" y2="298.86"/>
    <line class="c" x1="386.86" y1="162.92" x2="386.86" y2="298.86"/>
    <line class="c" x1="403.99" y1="162.92" x2="403.99" y2="298.86"/>
    <line class="c" x1="409.68" y1="162.92" x2="409.68" y2="298.86"/>
    <line class="c" x1="415.44" y1="185.68" x2="415.44" y2="298.86"/>
    <line class="c" x1="115.85" y1="298.86" x2="159.41" y2="245.87"/>
    <line class="c" x1="94.18" y1="298.86" x2="210.24" y2="157.31"/>
    <line class="c" x1="164.09" y1="240.18" x2="214.78" y2="178.62"/>
    <line class="c" x1="220.46" y1="171.64" x2="226.73" y2="164.08"/>
    <line class="c" x1="214.78" y1="178.62" x2="214.78" y2="240.18"/>
    <line class="c" x1="214.78" y1="245.87" x2="214.78" y2="298.86"/>
    <line class="c" x1="220.46" y1="171.64" x2="220.46" y2="240.18"/>
    <line class="c" x1="220.46" y1="245.87" x2="220.46" y2="298.86"/>
    <line class="c" x1="226.73" y1="240.18" x2="220.46" y2="240.18"/>
    <line class="c" x1="214.78" y1="240.18" x2="164.09" y2="240.18"/>
    <line class="c" x1="226.73" y1="245.87" x2="220.46" y2="245.87"/>
    <line class="c" x1="214.78" y1="245.87" x2="159.41" y2="245.87"/>
    <line class="c" x1="346.54" y1="157.31" x2="346.54" y2="162.92"/>
    <line class="c" x1="415.44" y1="185.68" x2="415.44" y2="162.92"/>
  </g>
</svg>
